<svg width="36px" height="64px" viewBox="0 0 36 64" version="1.1" xmlns="http://www.w3.org/2000/svg" xmlns:xlink="http://www.w3.org/1999/xlink">
    <title>Site / Loghi / Studium-logo-soloPitto</title>
    <g id="Symbols" stroke="none" stroke-width="1" fill="none" fill-rule="evenodd">
        <g id="Site-/-Header-/-Head-Scroll-WHITE" transform="translate(-702.000000, -31.000000)" fill="#FFFFFF">
            <g id="Site-/-Loghi-/-Studium-logo-soloPitto" transform="translate(702.000000, 31.000000)">
                <path d="M0.393442623,31.9163224 L18.0636464,41.9016393 L35.6065574,31.9153436 L18.0798028,21.8360656 L0.393442623,31.9163224 Z M2.87222578,31.9114286 L18.0773549,23.2459704 L33.143441,31.909471 L18.0611985,40.4951602 L2.87222578,31.9114286 Z" id="Fill-1"></path>
                <path d="M18.0615316,0 L0.0470441716,10.2687779 L0,30.4918033 L35.6065574,10.0919158 L18.0615316,0 Z M1.27019263,10.9811253 L18.0590814,1.41146703 L33.1465392,10.0894662 L1.23000907,28.3753376 L1.27019263,10.9811253 Z" id="Fill-2"></path>
                <path d="M0.393442623,53.9401002 L18.0827846,63.9344262 L36,53.7383331 L35.9848084,33.442623 L0.393442623,53.9401002 Z M2.86476577,53.929816 L34.7616431,35.5601977 L34.7743845,53.0262717 L18.0808244,62.526954 L2.86476577,53.929816 Z" id="Fill-3"></path>
            </g>
        </g>
    </g>
</svg>